<?xml version="1.0" encoding="utf-8"?>
<!-- Generator: Adobe Illustrator 24.2.0, SVG Export Plug-In . SVG Version: 6.00 Build 0)  -->
<svg version="1.1" id="Réteg_1" xmlns="http://www.w3.org/2000/svg" xmlns:xlink="http://www.w3.org/1999/xlink" x="0px" y="0px"
	 viewBox="0 0 925.7 274.3" style="enable-background:new 0 0 925.7 274.3;" xml:space="preserve">
<style type="text/css">
	.st0{display:none;}
	.st1{display:inline;}
	.st2{display:inline;fill:#A6A6A6;}
	.st3{display:inline;fill:#FFFFFF;}
	.st4{display:inline;fill:#00C1FF;}
	.st5{display:inline;fill:url(#SVGID_1_);}
	.st6{display:inline;fill:url(#SVGID_2_);}
	.st7{display:inline;fill:url(#SVGID_3_);}
	.st8{display:inline;fill:url(#SVGID_4_);}
	.st9{display:inline;fill:url(#SVGID_5_);}
	.st10{display:inline;fill:url(#SVGID_6_);}
	.st11{display:inline;fill:url(#SVGID_7_);}
	.st12{display:inline;fill:url(#SVGID_8_);}
	.st13{display:inline;fill:url(#SVGID_9_);}
	.st14{display:inline;fill:url(#SVGID_10_);}
	.st15{fill:#A6A6A6;}
	.st16{fill:#FFFFFF;}
</style>
<g class="st0">
	<path class="st1" d="M891.5,553.6H36.8c-18.8,0-34.2-15.4-34.2-34.2V313.9c0-18.8,15.4-34.2,34.2-34.2h854.7
		c18.8,0,34.2,15.4,34.2,34.2v205.5C925.7,538.2,910.3,553.6,891.5,553.6"/>
	<path class="st2" d="M891.5,279.7H36.8c-18.8,0-34.2,15.4-34.2,34.2v205.5c0,18.8,15.4,34.2,34.2,34.2h854.7
		c18.8,0,34.2-15.4,34.2-34.2V313.9C925.7,295.1,910.3,279.7,891.5,279.7 M891.5,285.2c15.8,0,28.7,12.9,28.7,28.8v205.5
		c0,15.9-12.9,28.8-28.7,28.8H36.8c-15.8,0-28.7-12.9-28.7-28.8V313.9c0-15.9,12.9-28.8,28.7-28.8L891.5,285.2"/>
	<path class="st3" d="M326.8,349.9c0,5.7-1.7,10.3-5.1,13.7c-3.9,4.1-8.9,6.1-15.1,6.1c-5.9,0-11-2.1-15.1-6.2
		c-4.1-4.1-6.2-9.2-6.2-15.3c0-6.1,2.1-11.2,6.2-15.3c4.1-4.1,9.2-6.2,15.1-6.2c2.9,0,5.8,0.6,8.4,1.7c2.7,1.2,4.8,2.7,6.4,4.6
		l-3.6,3.6c-2.7-3.3-6.5-4.9-11.2-4.9c-4.3,0-8.1,1.5-11.2,4.6c-3.2,3-4.7,7-4.7,11.9c0,4.9,1.6,8.8,4.7,11.9
		c3.2,3,6.9,4.6,11.2,4.6c4.6,0,8.4-1.5,11.5-4.6c2-2,3.1-4.8,3.4-8.3h-14.9v-4.9h19.9C326.7,347.8,326.8,348.9,326.8,349.9"/>
	<path class="st3" d="M326.8,349.9h-0.7c0,5.6-1.6,10-4.9,13.2l0,0l0,0c-3.7,3.9-8.5,5.9-14.6,5.9c-5.8,0-10.6-2-14.6-6
		c-4-4-6-8.9-6-14.8c0-5.9,2-10.8,6-14.8c4-4,8.9-6,14.6-6c2.9,0,5.6,0.6,8.2,1.7c2.6,1.1,4.6,2.6,6.2,4.4l0.5-0.4l-0.5-0.5
		l-3.6,3.6l0.5,0.5l0.5-0.4c-2.8-3.4-6.8-5.1-11.8-5.1c-4.5,0-8.4,1.6-11.7,4.8c-3.3,3.2-4.9,7.3-4.9,12.3c0,5,1.6,9.2,4.9,12.3
		c3.3,3.2,7.2,4.8,11.7,4.8c4.7,0,8.8-1.6,11.9-4.8c2.1-2.1,3.3-5.1,3.6-8.7l0.1-0.7h-15v-3.6h19.2v-0.7l-0.7,0.1c0.2,1,0.3,2,0.3,3
		h1.4c0-1-0.1-2.1-0.3-3.2l-0.1-0.6H306v6.3h15.6v-0.7l-0.7-0.1c-0.3,3.4-1.4,6-3.2,7.9c-2.9,2.9-6.5,4.4-11,4.4
		c-4.2,0-7.7-1.4-10.7-4.4c-3-2.9-4.5-6.6-4.5-11.4c0-4.7,1.5-8.4,4.5-11.4c3-2.9,6.6-4.4,10.7-4.4c4.6,0,8.1,1.5,10.7,4.6l0.5,0.6
		l4.1-4.1l0.4-0.4l-0.4-0.5c-1.7-2-3.9-3.6-6.7-4.8c-2.8-1.2-5.7-1.8-8.7-1.8c-6.1,0-11.3,2.1-15.6,6.4c-4.3,4.2-6.4,9.5-6.4,15.8
		c0,6.2,2.1,11.6,6.4,15.8c4.3,4.2,9.5,6.4,15.6,6.4c6.3,0,11.6-2.1,15.6-6.3l-0.5-0.5l0.5,0.5c3.5-3.5,5.3-8.3,5.3-14.2
		L326.8,349.9 M358.3,332.7h-18.7v13h16.8v4.9h-16.8v13h18.7v5h-24v-41.1h24V332.7"/>
	<path class="st3" d="M358.3,332.7V332H339v14.4h16.8v3.6l-16.8,0v14.4h18.7v3.7h-22.6v-39.7h22.6v4.4H358.3V332V332.7h0.7V327
		h-25.3v42.5H359V363h-18.7v-11.7h16.8V345h-16.8v-11.7H359v-0.7H358.3 M380.6,368.7h-5.3v-36h-11.5v-5H392v5h-11.5V368.7"/>
	<path class="st3" d="M380.6,368.7V368H376v-36h-11.5v-3.7h26.8v3.7h-11.5v36.7L380.6,368.7l0-0.7L380.6,368.7l0.7,0v-35.4h11.5V327
		h-29.6v6.4h11.5v36h6.6v-0.7L380.6,368.7 M412.4,368.7v-41.1h5.3v41.1L412.4,368.7"/>
	<path class="st3" d="M412.4,368.7h0.7v-40.4h3.9V368h-4.6V368.7l0.7,0L412.4,368.7v0.7h6V327h-6.6v42.5h0.7V368.7 M441.1,368.7
		h-5.3v-36h-11.5v-5h28.2v5h-11.5V368.7"/>
	<path class="st3" d="M441.1,368.7V368h-4.6v-36H425v-3.7h26.8v3.7h-11.5v36.7L441.1,368.7l0-0.7L441.1,368.7l0.7,0v-35.4h11.5V327
		h-29.6v6.4h11.5v36h6.6v-0.7L441.1,368.7 M479.7,360c3,3.1,6.8,4.6,11.1,4.6c4.4,0,8.1-1.5,11.1-4.6c3-3.1,4.6-7,4.6-11.8
		c0-4.8-1.5-8.7-4.6-11.8c-3-3.1-6.7-4.6-11.1-4.6c-4.4,0-8.1,1.5-11.1,4.6c-3,3.1-4.6,7-4.6,11.8S476.7,356.9,479.7,360z
		 M505.9,363.4c-4,4.2-9,6.2-15,6.2c-6,0-11-2.1-15-6.2c-4-4.1-6-9.2-6-15.2s2-11.1,6-15.2c4-4.2,9-6.2,15-6.2c6,0,11,2.1,15,6.3
		c4,4.2,6.1,9.2,6.1,15.2C512,354.2,509.9,359.3,505.9,363.4z"/>
	<path class="st3" d="M479.7,360l-0.5,0.5c3.1,3.2,7.1,4.8,11.6,4.8c4.6,0,8.5-1.6,11.6-4.8c3.2-3.2,4.8-7.4,4.8-12.3
		c0-4.9-1.6-9.1-4.8-12.3c-3.1-3.2-7.1-4.8-11.6-4.8c-4.6,0-8.5,1.6-11.6,4.8c-3.2,3.2-4.8,7.4-4.8,12.3c0,4.9,1.6,9.1,4.8,12.3
		L479.7,360l0.5-0.5c-2.9-3-4.4-6.7-4.4-11.3c0-4.6,1.5-8.4,4.4-11.3c2.9-3,6.4-4.4,10.7-4.4c4.2,0,7.7,1.5,10.7,4.4
		c2.9,3,4.4,6.7,4.4,11.3c0,4.6-1.5,8.4-4.4,11.3c-2.9,3-6.4,4.4-10.7,4.4c-4.2,0-7.7-1.5-10.7-4.4L479.7,360z M505.9,363.4
		l-0.5-0.5c-3.9,4-8.7,6-14.6,6c-5.8,0-10.6-2-14.5-6l0,0l0,0c-3.9-4-5.8-8.9-5.8-14.8c0-5.9,1.9-10.7,5.8-14.8c3.9-4,8.7-6,14.5-6
		c5.8,0,10.6,2,14.5,6.1c3.9,4.1,5.9,8.9,5.9,14.7c0,5.9-1.9,10.7-5.8,14.8L505.9,363.4l0.5,0.5c4.1-4.3,6.2-9.6,6.2-15.7
		c0-6.1-2.1-11.4-6.3-15.7c-4.2-4.3-9.4-6.5-15.5-6.5c-6.2,0-11.4,2.2-15.5,6.4v0c-4.2,4.3-6.2,9.6-6.2,15.7
		c0,6.2,2.1,11.4,6.2,15.7l0,0l0,0c4.1,4.3,9.4,6.4,15.5,6.4c6.2,0,11.4-2.2,15.5-6.4L505.9,363.4z M519.4,368.7v-41.1h6.4l19.9,32
		h0.2l-0.2-7.9v-24h5.3v41.1h-5.5l-20.9-33.5h-0.2l0.2,7.9v25.6L519.4,368.7"/>
	<path class="st3" d="M519.4,368.7h0.7v-40.4h5.4l19.9,32h1.3l-0.2-8.6v-23.4h3.9V368h-4.4L525,334.5h-1.3l0.2,8.6V368h-4.6
		L519.4,368.7l0.7,0L519.4,368.7l0,0.7h6v-26.3l-0.2-7.9l-0.7,0v0.7h0.2v-0.7l-0.6,0.4l21.1,33.8h6.6V327H545v24.7l0.2,7.9l0.7,0
		v-0.7h-0.2v0.7l0.6-0.4L526.2,327h-7.5v42.5h0.7L519.4,368.7 M733.8,485.2h12.8v-85.6h-12.8L733.8,485.2z M848.7,430.4l-14.6,37.1
		h-0.4l-15.2-37.1h-13.7l22.8,51.9l-13,28.9h13.3l35.1-80.7L848.7,430.4z M776.4,475.4c-4.2,0-10-2.1-10-7.3c0-6.6,7.3-9.1,13.5-9.1
		c5.6,0,8.2,1.2,11.7,2.9C790.5,469.8,783.7,475.4,776.4,475.4L776.4,475.4z M777.9,428.5c-9.2,0-18.8,4.1-22.8,13.1l11.3,4.7
		c2.4-4.7,6.9-6.3,11.7-6.3c6.6,0,13.3,4,13.4,11v0.9c-2.3-1.3-7.3-3.3-13.3-3.3c-12.2,0-24.6,6.7-24.6,19.3
		c0,11.5,10,18.8,21.2,18.8c8.6,0,13.3-3.9,16.3-8.4h0.4v6.6h12.3v-32.8C803.8,437,792.5,428.5,777.9,428.5L777.9,428.5z M699,440.8
		h-18.1v-29.3H699c9.5,0,15,7.9,15,14.7C714,432.8,708.6,440.8,699,440.8z M698.7,399.5h-30.6v85.6h12.8v-32.4h17.8
		c14.1,0,28-10.3,28-26.6C726.8,409.8,712.9,399.5,698.7,399.5L698.7,399.5z M532,475.4c-8.8,0-16.2-7.4-16.2-17.5
		c0-10.3,7.4-17.8,16.2-17.8c8.7,0,15.5,7.5,15.5,17.8C547.5,468.1,540.7,475.4,532,475.4L532,475.4z M546.7,435.2h-0.4
		c-2.9-3.4-8.4-6.5-15.3-6.5c-14.5,0-27.9,12.8-27.9,29.2c0,16.3,13.3,29,27.9,29c6.9,0,12.4-3.1,15.3-6.6h0.4v4.2
		c0,11.1-5.9,17.1-15.5,17.1c-7.8,0-12.7-5.6-14.7-10.4l-11.1,4.6c3.2,7.7,11.7,17.2,25.8,17.2c15,0,27.6-8.8,27.6-30.3v-52.3h-12.1
		L546.7,435.2z M567.6,485.2h12.8v-85.6h-12.8V485.2z M599.2,456.9c-0.3-11.3,8.7-17,15.2-17c5.1,0,9.4,2.5,10.8,6.2L599.2,456.9z
		 M638.9,447.2c-2.4-6.5-9.8-18.5-24.9-18.5c-15,0-27.4,11.8-27.4,29.1c0,16.3,12.3,29.1,28.9,29.1c13.3,0,21-8.2,24.2-12.9
		l-9.9-6.6c-3.3,4.9-7.8,8.1-14.3,8.1c-6.5,0-11.1-3-14.1-8.8l38.9-16.1L638.9,447.2z M329.1,437.6V450h29.5c-0.9,7-3.2,12-6.7,15.6
		c-4.3,4.3-11,9-22.8,9c-18.2,0-32.4-14.7-32.4-32.9c0-18.2,14.2-32.9,32.4-32.9c9.8,0,17,3.9,22.3,8.8l8.7-8.7
		c-7.4-7.1-17.2-12.5-31-12.5c-24.9,0-45.8,20.3-45.8,45.2c0,24.9,20.9,45.2,45.8,45.2c13.4,0,23.6-4.4,31.5-12.7
		c8.2-8.2,10.7-19.6,10.7-28.9c0-2.9-0.2-5.5-0.7-7.7L329.1,437.6z M404.8,475.4c-8.8,0-16.4-7.3-16.4-17.7
		c0-10.5,7.6-17.7,16.4-17.7c8.8,0,16.4,7.2,16.4,17.7C421.2,468.2,413.6,475.4,404.8,475.4z M404.8,428.7
		c-16.1,0-29.2,12.2-29.2,29.1c0,16.8,13.1,29.1,29.2,29.1c16.1,0,29.2-12.4,29.2-29.1C434,440.9,420.9,428.7,404.8,428.7z
		 M468.5,475.4c-8.8,0-16.4-7.3-16.4-17.7c0-10.5,7.6-17.7,16.4-17.7c8.8,0,16.4,7.2,16.4,17.7C484.9,468.2,477.3,475.4,468.5,475.4
		L468.5,475.4z M468.5,428.7c-16.1,0-29.2,12.2-29.2,29.1c0,16.8,13.1,29.1,29.2,29.1c16.1,0,29.2-12.4,29.2-29.1
		C497.7,440.9,484.6,428.7,468.5,428.7L468.5,428.7z"/>
	<path class="st4" d="M74.5,331.8c-2.3,2.1-3.7,5.5-3.7,10.1v-1v151.5v-1c0,4.2,1.2,7.5,3.2,9.6l0.5,0.5v0c1.6,1.5,3.7,2.2,6,2.2
		c2.3,0,4.9-0.7,7.7-2.3l99.2-56.5l34.1-19.4c4.3-2.5,6.8-5.6,7.2-8.9v0c-0.4-3.2-2.8-6.4-7.2-8.9l-34.1-19.4l-99.2-56.5
		c-2.8-1.6-5.4-2.3-7.7-2.3C78.1,329.6,76.1,330.4,74.5,331.8L74.5,331.8z"/>
	
		<linearGradient id="SVGID_1_" gradientUnits="userSpaceOnUse" x1="433.4338" y1="281.8646" x2="293.3068" y2="551.3536" gradientTransform="matrix(0.2221 0 0 0.4265 29.0637 219.5374)">
		<stop  offset="0" style="stop-color:#00A0FF"/>
		<stop  offset="6.569999e-03" style="stop-color:#00A1FF"/>
		<stop  offset="0.2601" style="stop-color:#00BEFF"/>
		<stop  offset="0.5122" style="stop-color:#00D2FF"/>
		<stop  offset="0.7604" style="stop-color:#00DFFF"/>
		<stop  offset="1" style="stop-color:#00E3FF"/>
	</linearGradient>
	<path class="st5" d="M74.5,501.5L74,501c-2-2.1-3.2-5.4-3.2-9.6v1V340.9v1c0-4.6,1.4-8,3.7-10.1l84.7,84.9L74.5,501.5"/>
	
		<linearGradient id="SVGID_2_" gradientUnits="userSpaceOnUse" x1="464.1619" y1="719.4487" x2="-20.8431" y2="719.4487" gradientTransform="matrix(0.3411 0 0 0.2777 75.6115 216.8742)">
		<stop  offset="0" style="stop-color:#FFE000"/>
		<stop  offset="0.4087" style="stop-color:#FFBD00"/>
		<stop  offset="0.7754" style="stop-color:#FFA500"/>
		<stop  offset="1" style="stop-color:#FF9C00"/>
	</linearGradient>
	<path class="st6" d="M187.4,445l-28.2-28.3l28.2-28.3l34.1,19.4c4.3,2.5,6.8,5.6,7.2,8.9v0c-0.4,3.2-2.8,6.4-7.2,8.9L187.4,445"/>
	
		<linearGradient id="SVGID_3_" gradientUnits="userSpaceOnUse" x1="505.1367" y1="583.5558" x2="63.0616" y2="922.4037" gradientTransform="matrix(0.3506 0 0 0.2702 -12.3221 278.1639)">
		<stop  offset="0" style="stop-color:#FF3A44"/>
		<stop  offset="1" style="stop-color:#C31162"/>
	</linearGradient>
	<path class="st7" d="M80.5,503.7c-2.4,0-4.4-0.8-6-2.2v0l84.7-84.8l28.2,28.3l-99.2,56.5C85.4,503,82.8,503.7,80.5,503.7"/>
	
		<linearGradient id="SVGID_4_" gradientUnits="userSpaceOnUse" x1="163.844" y1="501.2022" x2="360.943" y2="652.5073" gradientTransform="matrix(0.3506 0 0 0.2702 -12.2563 191.2708)">
		<stop  offset="0" style="stop-color:#32A071"/>
		<stop  offset="6.850000e-02" style="stop-color:#2DA771"/>
		<stop  offset="0.4762" style="stop-color:#15CF74"/>
		<stop  offset="0.8009" style="stop-color:#06E775"/>
		<stop  offset="1" style="stop-color:#00F076"/>
	</linearGradient>
	<path class="st8" d="M159.2,416.7l-84.7-84.9c1.6-1.5,3.7-2.2,6-2.2c2.3,0,4.9,0.7,7.7,2.3l99.2,56.5L159.2,416.7"/>
	
		<linearGradient id="SVGID_5_" gradientUnits="userSpaceOnUse" x1="245.2375" y1="1160.9747" x2="245.2375" y2="1160.9747" gradientTransform="matrix(0.3506 0 0 0.2702 -12.2563 191.2708)">
		<stop  offset="0" style="stop-color:#32A071"/>
		<stop  offset="6.850000e-02" style="stop-color:#2DA771"/>
		<stop  offset="0.4762" style="stop-color:#15CF74"/>
		<stop  offset="0.8009" style="stop-color:#06E775"/>
		<stop  offset="1" style="stop-color:#00F076"/>
	</linearGradient>
	<path class="st9" d="M73.7,505"/>
	
		<linearGradient id="SVGID_6_" gradientUnits="userSpaceOnUse" x1="259.3008" y1="310.3206" x2="183.4967" y2="529.9046" gradientTransform="matrix(0.181 0 0 0.5234 43.4628 185.2141)">
		<stop  offset="0" style="stop-color:#008DE0"/>
		<stop  offset="6.569999e-03" style="stop-color:#008DE0"/>
		<stop  offset="0.2601" style="stop-color:#00A7E0"/>
		<stop  offset="0.5122" style="stop-color:#00B8E0"/>
		<stop  offset="0.7604" style="stop-color:#00C4E0"/>
		<stop  offset="1" style="stop-color:#00C7E0"/>
	</linearGradient>
	<path class="st10" d="M74,502c-2-2.1-3.2-5.4-3.2-9.6v-1c0,4.2,1.2,7.5,3.2,9.6l0.5,0.5L74,502"/>
	
		<linearGradient id="SVGID_7_" gradientUnits="userSpaceOnUse" x1="379.0759" y1="801.6388" x2="-70.9601" y2="801.6388" gradientTransform="matrix(0.3676 0 0 0.2577 94.5888 224.5669)">
		<stop  offset="0" style="stop-color:#E0C500"/>
		<stop  offset="0.4087" style="stop-color:#E0A600"/>
		<stop  offset="0.7754" style="stop-color:#E09100"/>
		<stop  offset="1" style="stop-color:#E08900"/>
	</linearGradient>
	<path class="st11" d="M188.1,445.6l-0.6-0.6l34.1-19.4c4.3-2.5,6.8-5.6,7.2-8.9c0,1.2-0.3,2.4-0.8,3.5c-1.1,2.3-3.2,4.5-6.4,6.3
		L188.1,445.6"/>
	
		<linearGradient id="SVGID_8_" gradientUnits="userSpaceOnUse" x1="379.0763" y1="800.9736" x2="-70.9657" y2="800.9736" gradientTransform="matrix(0.3676 0 0 0.2577 94.5909 195.8017)">
		<stop  offset="0" style="stop-color:#FFE840"/>
		<stop  offset="0.4087" style="stop-color:#FFCE40"/>
		<stop  offset="0.7754" style="stop-color:#FFBC40"/>
		<stop  offset="1" style="stop-color:#FFB540"/>
	</linearGradient>
	<path class="st12" d="M228.7,416.7c-0.4-3.2-2.8-6.4-7.2-8.9l-34.1-19.4l0.6-0.6h0l33.5,19C226.3,409.5,228.7,413.1,228.7,416.7"/>
	
		<linearGradient id="SVGID_9_" gradientUnits="userSpaceOnUse" x1="164.5456" y1="583.1615" x2="89.1666" y2="792.6285" gradientTransform="matrix(0.1807 0 0 0.5242 43.55 24.6951)">
		<stop  offset="0" style="stop-color:#40B8FF"/>
		<stop  offset="6.569999e-03" style="stop-color:#40B9FF"/>
		<stop  offset="0.2601" style="stop-color:#40CEFF"/>
		<stop  offset="0.5122" style="stop-color:#40DDFF"/>
		<stop  offset="0.7604" style="stop-color:#40E7FF"/>
		<stop  offset="1" style="stop-color:#40EAFF"/>
	</linearGradient>
	<path class="st13" d="M70.8,341.9v-1c0-0.4,0-0.7,0-1.1v0c0,0,0,0,0,0v0c0.2-3.7,1.3-6.5,3.1-8.4l0.5,0.5
		C72.2,333.9,70.8,337.4,70.8,341.9"/>
	
		<linearGradient id="SVGID_10_" gradientUnits="userSpaceOnUse" x1="166.8983" y1="694.2484" x2="166.8983" y2="694.2484" gradientTransform="matrix(0.1807 0 0 0.5242 43.55 24.6951)">
		<stop  offset="0" style="stop-color:#40B8FF"/>
		<stop  offset="6.569999e-03" style="stop-color:#40B9FF"/>
		<stop  offset="0.2601" style="stop-color:#40CEFF"/>
		<stop  offset="0.5122" style="stop-color:#40DDFF"/>
		<stop  offset="0.7604" style="stop-color:#40E7FF"/>
		<stop  offset="1" style="stop-color:#40EAFF"/>
	</linearGradient>
	<path class="st14" d="M73.7,388.6"/>
</g>
<g>
	<path class="st15" d="M894.2,274.3H33c-17.9,0-33-14.8-33-32.7V32C0,14.1,15.1,0,33,0h861.2c17.9,0,31.5,14.1,31.5,32v209.6
		c0,17.9-14.1,32.7-32,32.7H894.2z"/>
	<path d="M920.5,241.6c0,14.5-11.8,26.3-26.3,26.3H33c-14.5,0-26.3-11.8-26.3-26.3V32C6.6,17.4,18.5,5.6,33,5.6h861.2
		c14.6,0,26.3,11.8,26.3,26.3L920.5,241.6L920.5,241.6z"/>
	<g>
		<g>
			<path class="st16" d="M207.3,135.3c-0.2-22.1,18.1-32.9,18.9-33.4c-10.4-15.1-26.4-17.2-32.1-17.3c-13.5-1.4-26.6,8.1-33.5,8.1
				c-7,0-17.6-7.9-29-7.7c-14.7,0.2-28.4,8.7-36,21.9c-15.6,26.9-4,66.5,10.9,88.3c7.5,10.7,16.2,22.6,27.6,22.1
				c11.2-0.5,15.3-7.1,28.8-7.1c13.3,0,17.2,7.1,28.9,6.8c12-0.2,19.5-10.7,26.7-21.5c8.6-12.2,12.1-24.3,12.2-24.9
				C230.5,170.6,207.6,161.8,207.3,135.3z"/>
			<path class="st16" d="M185.4,70.3c6-7.5,10.1-17.7,9-28.1c-8.7,0.4-19.5,6-25.8,13.3c-5.5,6.5-10.5,17.1-9.2,27
				C169.1,83.3,179.1,77.6,185.4,70.3z"/>
		</g>
	</g>
	<g>
		<path class="st16" d="M368.7,215.8h-15.6l-8.5-26.8h-29.7l-8.1,26.8h-15.2l29.4-91.3h18.2L368.7,215.8z M342,177.7l-7.7-23.8
			c-0.8-2.4-2.3-8.2-4.6-17.2h-0.3c-0.9,3.9-2.3,9.6-4.3,17.2l-7.6,23.8H342z"/>
		<path class="st16" d="M444.4,182c0,11.2-3,20.1-9.1,26.6c-5.4,5.8-12.2,8.7-20.2,8.7c-8.7,0-14.9-3.1-18.7-9.4h-0.3v34.7h-14.6
			v-71c0-7-0.2-14.3-0.5-21.7h12.9l0.8,10.4h0.3c4.9-7.9,12.3-11.8,22.2-11.8c7.8,0,14.3,3.1,19.4,9.2
			C441.8,163.9,444.4,172,444.4,182z M429.4,182.5c0-6.4-1.4-11.7-4.3-15.9c-3.2-4.3-7.4-6.5-12.7-6.5c-3.6,0-6.9,1.2-9.8,3.6
			c-2.9,2.4-4.9,5.5-5.8,9.4c-0.5,1.8-0.7,3.3-0.7,4.5v11c0,4.8,1.5,8.8,4.4,12.1c2.9,3.3,6.8,4.9,11.5,4.9c5.5,0,9.8-2.1,12.9-6.4
			C427.9,195.1,429.4,189.5,429.4,182.5z"/>
		<path class="st16" d="M520.1,182c0,11.2-3,20.1-9.1,26.6c-5.4,5.8-12.1,8.7-20.2,8.7c-8.7,0-14.9-3.1-18.7-9.4h-0.3v34.7h-14.6
			v-71c0-7-0.2-14.3-0.5-21.7h12.9l0.8,10.4h0.3c4.9-7.9,12.3-11.8,22.2-11.8c7.8,0,14.2,3.1,19.5,9.2
			C517.5,163.9,520.1,172,520.1,182z M505.2,182.5c0-6.4-1.4-11.7-4.3-15.9c-3.2-4.3-7.4-6.5-12.7-6.5c-3.6,0-6.9,1.2-9.8,3.6
			c-2.9,2.4-4.8,5.5-5.8,9.4c-0.4,1.8-0.7,3.3-0.7,4.5v11c0,4.8,1.5,8.8,4.4,12.1c2.9,3.3,6.8,4.9,11.5,4.9c5.5,0,9.8-2.1,12.9-6.4
			C503.7,195.1,505.2,189.5,505.2,182.5z"/>
		<path class="st16" d="M604.8,190.1c0,7.8-2.7,14.1-8.1,19c-6,5.3-14.2,8-24.9,8c-9.8,0-17.7-1.9-23.7-5.7l3.4-12.2
			c6.4,3.9,13.5,5.8,21.2,5.8c5.5,0,9.8-1.2,12.9-3.7c3.1-2.5,4.6-5.8,4.6-10c0-3.7-1.3-6.8-3.8-9.4c-2.5-2.5-6.7-4.9-12.6-7.1
			c-16-6-24-14.7-24-26.2c0-7.5,2.8-13.7,8.4-18.5c5.6-4.8,13-7.2,22.4-7.2c8.3,0,15.2,1.4,20.7,4.3l-3.7,11.9
			c-5.1-2.8-11-4.2-17.5-4.2c-5.1,0-9.2,1.3-12.1,3.8c-2.4,2.3-3.7,5-3.7,8.3c0,3.6,1.4,6.6,4.2,8.9c2.4,2.2,6.9,4.5,13.3,7.1
			c7.9,3.2,13.6,6.9,17.3,11.1C602.9,178.5,604.8,183.8,604.8,190.1z"/>
		<path class="st16" d="M653.2,160.9h-16.1v32c0,8.1,2.8,12.2,8.5,12.2c2.6,0,4.8-0.2,6.5-0.7l0.4,11.1c-2.9,1.1-6.7,1.6-11.4,1.6
			c-5.8,0-10.3-1.8-13.6-5.3c-3.2-3.5-4.9-9.4-4.9-17.8v-33.2h-9.6v-11h9.6v-12.1l14.4-4.3v16.4h16.1V160.9z"/>
		<path class="st16" d="M726,182.3c0,10.1-2.9,18.4-8.7,24.9c-6.1,6.7-14.1,10-24.1,10c-9.7,0-17.4-3.2-23.1-9.6
			c-5.7-6.4-8.6-14.5-8.6-24.3c0-10.2,2.9-18.6,8.9-25.1c5.9-6.5,13.9-9.8,23.9-9.8c9.7,0,17.4,3.2,23.3,9.6
			C723.2,164.4,726,172.4,726,182.3z M710.8,182.8c0-6.1-1.3-11.3-3.9-15.6c-3.1-5.3-7.5-7.9-13.1-7.9c-5.9,0-10.3,2.6-13.4,7.9
			c-2.6,4.4-3.9,9.6-3.9,15.9c0,6.1,1.3,11.3,3.9,15.6c3.2,5.3,7.6,7.9,13.3,7.9c5.6,0,10-2.7,13.1-8
			C709.4,194.1,710.8,188.8,710.8,182.8z"/>
		<path class="st16" d="M773.5,162.8c-1.4-0.3-3-0.4-4.6-0.4c-5.1,0-9.1,1.9-11.9,5.8c-2.4,3.4-3.7,7.8-3.7,13v34.6h-14.6l0.1-45.1
			c0-7.6-0.2-14.5-0.5-20.7H751l0.5,12.6h0.4c1.5-4.3,4-7.8,7.3-10.4c3.3-2.4,6.8-3.5,10.6-3.5c1.4,0,2.6,0.1,3.7,0.3V162.8z"/>
		<path class="st16" d="M839,179.7c0,2.6-0.2,4.8-0.5,6.6h-43.9c0.2,6.5,2.3,11.5,6.4,14.9c3.7,3.1,8.5,4.6,14.4,4.6
			c6.5,0,12.4-1,17.8-3.1l2.3,10.2c-6.2,2.7-13.6,4.1-22.1,4.1c-10.2,0-18.2-3-24.1-9c-5.8-6-8.7-14.1-8.7-24.2
			c0-9.9,2.7-18.2,8.1-24.8c5.7-7,13.4-10.6,23-10.6c9.5,0,16.7,3.5,21.6,10.6C837,164.6,839,171.5,839,179.7z M825,175.9
			c0.1-4.3-0.9-8.1-2.8-11.2c-2.5-4.1-6.4-6.1-11.7-6.1c-4.8,0-8.7,2-11.6,6c-2.4,3.2-3.9,7-4.3,11.4H825z"/>
	</g>
	<g>
		<g>
			<path class="st16" d="M337.2,68.2c0,8.1-2.4,14.2-7.3,18.2c-4.5,3.8-10.9,5.7-19.1,5.7c-4.1,0-7.6-0.2-10.5-0.5V47.4
				c3.8-0.6,7.9-0.9,12.4-0.9c7.9,0,13.8,1.7,17.8,5.1C335,55.5,337.2,61,337.2,68.2z M329.6,68.4c0-5.2-1.4-9.3-4.2-12.1
				c-2.8-2.8-6.8-4.2-12.2-4.2c-2.3,0-4.2,0.2-5.8,0.5v33.6c0.9,0.1,2.5,0.2,4.9,0.2c5.5,0,9.8-1.5,12.7-4.6
				C328.1,78.7,329.6,74.3,329.6,68.4z"/>
			<path class="st16" d="M377.4,75.3c0,5-1.4,9.1-4.3,12.2c-3,3.3-6.9,4.9-11.9,4.9c-4.8,0-8.5-1.6-11.4-4.7
				c-2.8-3.2-4.2-7.1-4.2-11.9c0-5,1.4-9.1,4.4-12.3c2.9-3.2,6.8-4.8,11.7-4.8c4.8,0,8.6,1.6,11.5,4.7
				C376,66.5,377.4,70.4,377.4,75.3z M369.9,75.5c0-3-0.6-5.5-1.9-7.7c-1.5-2.6-3.7-3.9-6.5-3.9c-2.9,0-5.1,1.3-6.6,3.9
				c-1.3,2.1-1.9,4.7-1.9,7.8c0,3,0.6,5.5,1.9,7.7c1.6,2.6,3.7,3.9,6.5,3.9c2.7,0,4.9-1.3,6.5-3.9C369.3,81.1,369.9,78.5,369.9,75.5
				z"/>
			<path class="st16" d="M431.3,59.4l-10.1,32.4h-6.6l-4.2-14c-1.1-3.5-1.9-7-2.6-10.5h-0.1c-0.6,3.6-1.5,7-2.6,10.5l-4.5,14H394
				l-9.5-32.4h7.4l3.7,15.4c0.9,3.6,1.6,7.1,2.2,10.4h0.1c0.5-2.7,1.4-6.1,2.7-10.3l4.6-15.4h5.9l4.4,15.1c1.1,3.7,1.9,7.2,2.6,10.7
				h0.2c0.5-3.3,1.2-6.9,2.2-10.7l3.9-15.1H431.3z"/>
			<path class="st16" d="M468.6,91.7h-7.2V73.2c0-5.7-2.2-8.6-6.5-8.6c-2.1,0-3.9,0.8-5.2,2.4c-1.3,1.6-2,3.4-2,5.5v19.2h-7.2V68.6
				c0-2.8-0.1-5.9-0.3-9.3h6.3l0.3,5.1h0.2c0.8-1.6,2.1-2.9,3.7-3.9c2-1.2,4.1-1.8,6.5-1.8c3,0,5.5,1,7.5,2.9
				c2.5,2.4,3.7,6,3.7,10.7V91.7z"/>
			<path class="st16" d="M488.5,91.7h-7.2V44.5h7.2V91.7z"/>
			<path class="st16" d="M530.8,75.3c0,5-1.4,9.1-4.3,12.2c-3,3.3-6.9,4.9-11.8,4.9c-4.8,0-8.5-1.6-11.4-4.7
				c-2.8-3.2-4.2-7.1-4.2-11.9c0-5,1.4-9.1,4.4-12.3c2.9-3.2,6.8-4.8,11.7-4.8c4.8,0,8.6,1.6,11.5,4.7
				C529.4,66.5,530.8,70.4,530.8,75.3z M523.3,75.5c0-3-0.6-5.5-1.9-7.7c-1.5-2.6-3.7-3.9-6.4-3.9c-2.9,0-5.1,1.3-6.6,3.9
				c-1.3,2.1-1.9,4.7-1.9,7.8c0,3,0.6,5.5,1.9,7.7c1.6,2.6,3.7,3.9,6.5,3.9c2.7,0,4.9-1.3,6.4-3.9C522.7,81.1,523.3,78.5,523.3,75.5
				z"/>
			<path class="st16" d="M565.6,91.7h-6.5l-0.5-3.7h-0.2c-2.2,3-5.4,4.5-9.5,4.5c-3.1,0-5.5-1-7.4-2.9c-1.7-1.8-2.5-4-2.5-6.6
				c0-4,1.6-7,5-9.1c3.3-2.1,8-3.1,14-3.1v-0.6c0-4.3-2.2-6.4-6.7-6.4c-3.2,0-6,0.8-8.4,2.4l-1.5-4.7c3-1.9,6.7-2.8,11.1-2.8
				c8.5,0,12.7,4.5,12.7,13.4V84C565.1,87.2,565.3,89.8,565.6,91.7z M558.1,80.6v-5c-7.9-0.1-11.9,2-11.9,6.5c0,1.7,0.5,3,1.4,3.8
				c0.9,0.8,2.1,1.3,3.5,1.3c1.6,0,3.1-0.5,4.4-1.5c1.4-1,2.2-2.3,2.5-3.8C558.1,81.5,558.1,81.1,558.1,80.6z"/>
			<path class="st16" d="M606.5,91.7h-6.4l-0.3-5.2h-0.2c-2,4-5.5,5.9-10.4,5.9c-3.9,0-7.1-1.5-9.7-4.6c-2.6-3.1-3.9-7-3.9-11.9
				c0-5.2,1.4-9.5,4.2-12.7c2.7-3,6-4.5,10-4.5c4.3,0,7.4,1.5,9.1,4.4h0.1V44.5h7.2V83C606.2,86.2,606.3,89.1,606.5,91.7z M599,78.1
				v-5.4c0-0.9-0.1-1.7-0.2-2.3c-0.4-1.7-1.3-3.2-2.6-4.4c-1.3-1.2-2.9-1.8-4.8-1.8c-2.7,0-4.8,1.1-6.3,3.2
				c-1.5,2.1-2.3,4.9-2.3,8.2c0,3.2,0.7,5.8,2.2,7.8c1.6,2.1,3.7,3.2,6.3,3.2c2.4,0,4.2-0.9,5.7-2.7C598.4,82.4,599,80.4,599,78.1z"
				/>
			<path class="st16" d="M668,75.3c0,5-1.4,9.1-4.3,12.2c-3,3.3-6.9,4.9-11.9,4.9c-4.7,0-8.5-1.6-11.4-4.7
				c-2.8-3.2-4.2-7.1-4.2-11.9c0-5,1.4-9.1,4.4-12.3c2.9-3.2,6.8-4.8,11.8-4.8c4.7,0,8.6,1.6,11.4,4.7C666.6,66.5,668,70.4,668,75.3
				z M660.6,75.5c0-3-0.6-5.5-1.9-7.7c-1.5-2.6-3.7-3.9-6.5-3.9c-2.9,0-5.1,1.3-6.6,3.9c-1.3,2.1-1.9,4.7-1.9,7.8
				c0,3,0.6,5.5,1.9,7.7c1.6,2.6,3.7,3.9,6.5,3.9c2.7,0,4.9-1.3,6.5-3.9C659.9,81.1,660.6,78.5,660.6,75.5z"/>
			<path class="st16" d="M706.7,91.7h-7.2V73.2c0-5.7-2.2-8.6-6.5-8.6c-2.1,0-3.9,0.8-5.2,2.4c-1.3,1.6-2,3.4-2,5.5v19.2h-7.2V68.6
				c0-2.8-0.1-5.9-0.3-9.3h6.3l0.3,5.1h0.2c0.8-1.6,2.1-2.9,3.7-3.9c2-1.2,4.1-1.8,6.5-1.8c3,0,5.5,1,7.5,2.9
				c2.5,2.4,3.7,6,3.7,10.7V91.7z"/>
			<path class="st16" d="M755.1,64.8h-7.9v15.7c0,4,1.4,6,4.2,6c1.3,0,2.4-0.1,3.2-0.3l0.2,5.5c-1.4,0.5-3.3,0.8-5.6,0.8
				c-2.8,0-5.1-0.9-6.6-2.6c-1.6-1.7-2.4-4.6-2.4-8.7V64.8h-4.7v-5.4h4.7v-5.9l7.1-2.1v8.1h7.9V64.8z"/>
			<path class="st16" d="M793.2,91.7H786V73.3c0-5.8-2.2-8.7-6.5-8.7c-3.3,0-5.6,1.7-6.9,5c-0.2,0.7-0.3,1.6-0.3,2.6v19.5h-7.2V44.5
				h7.2V64h0.1c2.3-3.5,5.5-5.3,9.7-5.3c3,0,5.4,1,7.4,2.9c2.4,2.4,3.7,6.1,3.7,10.9V91.7z"/>
			<path class="st16" d="M832.4,74c0,1.3-0.1,2.4-0.3,3.3h-21.6c0.1,3.2,1.1,5.6,3.1,7.3c1.8,1.5,4.2,2.3,7.1,2.3
				c3.2,0,6.1-0.5,8.7-1.5l1.1,5c-3.1,1.3-6.7,2-10.9,2c-5,0-9-1.5-11.8-4.4c-2.9-3-4.3-6.9-4.3-11.9c0-4.9,1.3-8.9,4-12.2
				c2.8-3.5,6.6-5.2,11.3-5.2c4.7,0,8.2,1.7,10.6,5.2C831.5,66.6,832.4,70,832.4,74z M825.6,72.2c0.1-2.1-0.4-4-1.4-5.5
				c-1.2-2-3.2-3-5.7-3c-2.3,0-4.3,1-5.7,2.9c-1.2,1.6-1.9,3.4-2.1,5.6H825.6z"/>
		</g>
	</g>
</g>
</svg>
