<?xml version="1.0" encoding="utf-8"?>
<!-- Generator: Adobe Illustrator 24.2.0, SVG Export Plug-In . SVG Version: 6.00 Build 0)  -->
<svg version="1.1" id="Réteg_1" xmlns="http://www.w3.org/2000/svg" xmlns:xlink="http://www.w3.org/1999/xlink" x="0px" y="0px"
	 viewBox="0 0 925.7 279.4" style="enable-background:new 0 0 925.7 279.4;" xml:space="preserve">
<style type="text/css">
	.st0{fill:#A6A6A6;}
	.st1{fill:#FFFFFF;}
	.st2{fill:#00C1FF;}
	.st3{fill:url(#SVGID_1_);}
	.st4{fill:url(#SVGID_2_);}
	.st5{fill:url(#SVGID_3_);}
	.st6{fill:url(#SVGID_4_);}
	.st7{fill:url(#SVGID_5_);}
	.st8{fill:url(#SVGID_6_);}
	.st9{fill:url(#SVGID_7_);}
	.st10{fill:url(#SVGID_8_);}
	.st11{fill:url(#SVGID_9_);}
	.st12{fill:url(#SVGID_10_);}
	.st13{display:none;}
	.st14{display:inline;fill:#A6A6A6;}
	.st15{display:inline;}
</style>
<g>
	<path d="M891.5,279.4H36.8C18,279.4,2.6,264,2.6,245.1V39.7C2.6,20.8,18,5.4,36.8,5.4h854.7c18.8,0,34.2,15.4,34.2,34.2v205.5
		C925.7,264,910.3,279.4,891.5,279.4"/>
	<path class="st0" d="M891.5,5.4H36.8C18,5.4,2.6,20.8,2.6,39.7v205.5c0,18.8,15.4,34.2,34.2,34.2h854.7c18.8,0,34.2-15.4,34.2-34.2
		V39.7C925.7,20.8,910.3,5.4,891.5,5.4 M891.5,10.9c15.8,0,28.7,12.9,28.7,28.8v205.5c0,15.9-12.9,28.8-28.7,28.8H36.8
		C21,273.9,8.1,261,8.1,245.1V39.7c0-15.9,12.9-28.8,28.7-28.8L891.5,10.9"/>
	<path class="st1" d="M326.8,75.6c0,5.7-1.7,10.3-5.1,13.7c-3.9,4.1-8.9,6.1-15.1,6.1c-5.9,0-11-2.1-15.1-6.2
		c-4.1-4.1-6.2-9.2-6.2-15.3c0-6.1,2.1-11.2,6.2-15.3c4.1-4.1,9.2-6.2,15.1-6.2c2.9,0,5.8,0.6,8.4,1.7c2.7,1.2,4.8,2.7,6.4,4.6
		l-3.6,3.6c-2.7-3.3-6.5-4.9-11.2-4.9c-4.3,0-8.1,1.5-11.2,4.6c-3.2,3-4.7,7-4.7,11.9c0,4.9,1.6,8.8,4.7,11.9
		c3.2,3,6.9,4.6,11.2,4.6c4.6,0,8.4-1.5,11.5-4.6c2-2,3.1-4.8,3.4-8.3h-14.9v-4.9h19.9C326.7,73.5,326.8,74.6,326.8,75.6"/>
	<path class="st1" d="M326.8,75.6h-0.7c0,5.6-1.6,10-4.9,13.2l0,0l0,0c-3.7,3.9-8.5,5.9-14.6,5.9c-5.8,0-10.6-2-14.6-6
		c-4-4-6-8.9-6-14.8c0-5.9,2-10.8,6-14.8c4-4,8.9-6,14.6-6c2.9,0,5.6,0.6,8.2,1.7c2.6,1.1,4.6,2.6,6.2,4.4l0.5-0.4l-0.5-0.5
		l-3.6,3.6l0.5,0.5l0.5-0.4c-2.8-3.4-6.8-5.1-11.8-5.1c-4.5,0-8.4,1.6-11.7,4.8c-3.3,3.2-4.9,7.3-4.9,12.3c0,5,1.6,9.2,4.9,12.3
		c3.3,3.2,7.2,4.8,11.7,4.8c4.7,0,8.8-1.6,11.9-4.8c2.1-2.1,3.3-5.1,3.6-8.7l0.1-0.7h-15v-3.6h19.2v-0.7l-0.7,0.1c0.2,1,0.3,2,0.3,3
		h1.4c0-1-0.1-2.1-0.3-3.2l-0.1-0.6H306v6.3h15.6v-0.7l-0.7-0.1c-0.3,3.4-1.4,6-3.2,7.9c-2.9,2.9-6.5,4.4-11,4.4
		c-4.2,0-7.7-1.4-10.7-4.4c-3-2.9-4.5-6.6-4.5-11.4c0-4.7,1.5-8.4,4.5-11.4c3-2.9,6.6-4.4,10.7-4.4c4.6,0,8.1,1.5,10.7,4.6l0.5,0.6
		l4.1-4.1l0.4-0.4l-0.4-0.5c-1.7-2-3.9-3.6-6.7-4.8c-2.8-1.2-5.7-1.8-8.7-1.8c-6.1,0-11.3,2.1-15.6,6.4c-4.3,4.2-6.4,9.5-6.4,15.8
		c0,6.2,2.1,11.6,6.4,15.8c4.3,4.2,9.5,6.4,15.6,6.4c6.3,0,11.6-2.1,15.6-6.3l-0.5-0.5l0.5,0.5c3.5-3.5,5.3-8.3,5.3-14.2L326.8,75.6
		 M358.3,58.4h-18.7v13h16.8v4.9h-16.8v13h18.7v5h-24V53.4h24V58.4"/>
	<path class="st1" d="M358.3,58.4v-0.7H339v14.4h16.8v3.6l-16.8,0v14.4h18.7v3.7h-22.6V54h22.6v4.4L358.3,58.4v-0.7V58.4l0.7,0v-5.7
		h-25.3v42.5H359v-6.4h-18.7V77.1h16.8v-6.3h-16.8V59.1H359v-0.7L358.3,58.4 M380.6,94.5h-5.3v-36h-11.5v-5H392v5h-11.5V94.5"/>
	<path class="st1" d="M380.6,94.5v-0.7H376v-36h-11.5V54h26.8v3.7h-11.5v36.7L380.6,94.5l0-0.7L380.6,94.5l0.7,0V59.1h11.5v-6.4
		h-29.6v6.4h11.5v36h6.6v-0.7L380.6,94.5 M412.4,94.5V53.4h5.3v41.1L412.4,94.5"/>
	<path class="st1" d="M412.4,94.5h0.7V54h3.9v39.7h-4.6V94.5l0.7,0L412.4,94.5v0.7h6V52.7h-6.6v42.5h0.7V94.5 M441.1,94.5h-5.3v-36
		h-11.5v-5h28.2v5h-11.5V94.5"/>
	<path class="st1" d="M441.1,94.5v-0.7h-4.6v-36H425V54h26.8v3.7h-11.5v36.7L441.1,94.5l0-0.7L441.1,94.5l0.7,0V59.1h11.5v-6.4
		h-29.6v6.4h11.5v36h6.6v-0.7L441.1,94.5 M479.7,85.7c3,3.1,6.8,4.6,11.1,4.6c4.4,0,8.1-1.5,11.1-4.6c3-3.1,4.6-7,4.6-11.8
		c0-4.8-1.5-8.7-4.6-11.8c-3-3.1-6.7-4.6-11.1-4.6c-4.4,0-8.1,1.5-11.1,4.6c-3,3.1-4.6,7-4.6,11.8C475.2,78.7,476.7,82.6,479.7,85.7
		z M505.9,89.1c-4,4.2-9,6.2-15,6.2c-6,0-11-2.1-15-6.2c-4-4.1-6-9.2-6-15.2c0-6,2-11.1,6-15.2c4-4.2,9-6.2,15-6.2
		c6,0,11,2.1,15,6.3c4,4.2,6.1,9.2,6.1,15.2C512,79.9,509.9,85,505.9,89.1z"/>
	<path class="st1" d="M479.7,85.7l-0.5,0.5c3.1,3.2,7.1,4.8,11.6,4.8c4.6,0,8.5-1.6,11.6-4.8c3.2-3.2,4.8-7.4,4.8-12.3
		c0-4.9-1.6-9.1-4.8-12.3c-3.1-3.2-7.1-4.8-11.6-4.8c-4.6,0-8.5,1.6-11.6,4.8c-3.2,3.2-4.8,7.4-4.8,12.3c0,4.9,1.6,9.1,4.8,12.3
		L479.7,85.7l0.5-0.5c-2.9-3-4.4-6.7-4.4-11.3c0-4.6,1.5-8.4,4.4-11.3c2.9-3,6.4-4.4,10.7-4.4c4.2,0,7.7,1.5,10.7,4.4
		c2.9,3,4.4,6.7,4.4,11.3c0,4.6-1.5,8.4-4.4,11.3c-2.9,3-6.4,4.4-10.7,4.4c-4.2,0-7.7-1.5-10.7-4.4L479.7,85.7z M505.9,89.1
		l-0.5-0.5c-3.9,4-8.7,6-14.6,6c-5.8,0-10.6-2-14.5-6l0,0l0,0c-3.9-4-5.8-8.9-5.8-14.8c0-5.9,1.9-10.7,5.8-14.8c3.9-4,8.7-6,14.5-6
		c5.8,0,10.6,2,14.5,6.1c3.9,4.1,5.9,8.9,5.9,14.7c0,5.9-1.9,10.7-5.8,14.8L505.9,89.1l0.5,0.5c4.1-4.3,6.2-9.6,6.2-15.7
		c0-6.1-2.1-11.4-6.3-15.7c-4.2-4.3-9.4-6.5-15.5-6.5c-6.2,0-11.4,2.2-15.5,6.4v0c-4.2,4.3-6.2,9.6-6.2,15.7
		c0,6.2,2.1,11.4,6.2,15.7l0,0l0,0c4.1,4.3,9.4,6.4,15.5,6.4c6.2,0,11.4-2.2,15.5-6.4L505.9,89.1z M519.4,94.5V53.4h6.4l19.9,32h0.2
		l-0.2-7.9v-24h5.3v41.1h-5.5l-20.9-33.5h-0.2l0.2,7.9v25.6L519.4,94.5"/>
	<path class="st1" d="M519.4,94.5h0.7V54h5.4l19.9,32h1.3l-0.2-8.6V54h3.9v39.7h-4.4L525,60.3h-1.3l0.2,8.6v24.9h-4.6L519.4,94.5
		l0.7,0L519.4,94.5l0,0.7h6V68.8l-0.2-7.9l-0.7,0v0.7h0.2v-0.7l-0.6,0.4l21.1,33.8h6.6V52.7H545v24.7l0.2,7.9l0.7,0v-0.7h-0.2v0.7
		l0.6-0.4l-20.1-32.3h-7.5v42.5h0.7L519.4,94.5 M733.8,210.9h12.8v-85.6h-12.8L733.8,210.9z M848.7,156.1l-14.6,37.1h-0.4
		l-15.2-37.1h-13.7l22.8,51.9l-13,28.9h13.3l35.1-80.7L848.7,156.1z M776.4,201.2c-4.2,0-10-2.1-10-7.3c0-6.6,7.3-9.1,13.5-9.1
		c5.6,0,8.2,1.2,11.7,2.9C790.5,195.5,783.7,201.2,776.4,201.2L776.4,201.2z M777.9,154.2c-9.2,0-18.8,4.1-22.8,13.1l11.3,4.7
		c2.4-4.7,6.9-6.3,11.7-6.3c6.6,0,13.3,4,13.4,11v0.9c-2.3-1.3-7.3-3.3-13.3-3.3c-12.2,0-24.6,6.7-24.6,19.3
		c0,11.5,10,18.8,21.2,18.8c8.6,0,13.3-3.9,16.3-8.4h0.4v6.6h12.3v-32.8C803.8,162.7,792.5,154.2,777.9,154.2L777.9,154.2z
		 M699,166.5h-18.1v-29.3H699c9.5,0,15,7.9,15,14.7C714,158.5,708.6,166.5,699,166.5z M698.7,125.3h-30.6v85.6h12.8v-32.4h17.8
		c14.1,0,28-10.3,28-26.6C726.8,135.5,712.9,125.3,698.7,125.3L698.7,125.3z M532,201.2c-8.8,0-16.2-7.4-16.2-17.5
		c0-10.3,7.4-17.8,16.2-17.8c8.7,0,15.5,7.5,15.5,17.8C547.5,193.8,540.7,201.2,532,201.2L532,201.2z M546.7,160.9h-0.4
		c-2.9-3.4-8.4-6.5-15.3-6.5c-14.5,0-27.9,12.8-27.9,29.2c0,16.3,13.3,29,27.9,29c6.9,0,12.4-3.1,15.3-6.6h0.4v4.2
		c0,11.1-5.9,17.1-15.5,17.1c-7.8,0-12.7-5.6-14.7-10.4l-11.1,4.6c3.2,7.7,11.7,17.2,25.8,17.2c15,0,27.6-8.8,27.6-30.3v-52.3h-12.1
		L546.7,160.9z M567.6,210.9h12.8v-85.6h-12.8V210.9z M599.2,182.6c-0.3-11.3,8.7-17,15.2-17c5.1,0,9.4,2.5,10.8,6.2L599.2,182.6z
		 M638.9,172.9c-2.4-6.5-9.8-18.5-24.9-18.5c-15,0-27.4,11.8-27.4,29.1c0,16.3,12.3,29.1,28.9,29.1c13.3,0,21-8.2,24.2-12.9
		l-9.9-6.6c-3.3,4.9-7.8,8.1-14.3,8.1c-6.5,0-11.1-3-14.1-8.8l38.9-16.1L638.9,172.9z M329.1,163.3v12.4h29.5
		c-0.9,7-3.2,12-6.7,15.6c-4.3,4.3-11,9-22.8,9c-18.2,0-32.4-14.7-32.4-32.9c0-18.2,14.2-32.9,32.4-32.9c9.8,0,17,3.9,22.3,8.8
		l8.7-8.7c-7.4-7.1-17.2-12.5-31-12.5c-24.9,0-45.8,20.3-45.8,45.2c0,24.9,20.9,45.2,45.8,45.2c13.4,0,23.6-4.4,31.5-12.7
		c8.2-8.2,10.7-19.6,10.7-28.9c0-2.9-0.2-5.5-0.7-7.7L329.1,163.3z M404.8,201.2c-8.8,0-16.4-7.3-16.4-17.7
		c0-10.5,7.6-17.7,16.4-17.7c8.8,0,16.4,7.2,16.4,17.7C421.2,193.9,413.6,201.2,404.8,201.2z M404.8,154.4
		c-16.1,0-29.2,12.2-29.2,29.1c0,16.8,13.1,29.1,29.2,29.1c16.1,0,29.2-12.4,29.2-29.1C434,166.6,420.9,154.4,404.8,154.4z
		 M468.5,201.2c-8.8,0-16.4-7.3-16.4-17.7c0-10.5,7.6-17.7,16.4-17.7c8.8,0,16.4,7.2,16.4,17.7C484.9,193.9,477.3,201.2,468.5,201.2
		L468.5,201.2z M468.5,154.4c-16.1,0-29.2,12.2-29.2,29.1c0,16.8,13.1,29.1,29.2,29.1c16.1,0,29.2-12.4,29.2-29.1
		C497.7,166.6,484.6,154.4,468.5,154.4L468.5,154.4z"/>
	<path class="st2" d="M74.5,57.5c-2.3,2.1-3.7,5.5-3.7,10.1v-1v151.5v-1c0,4.2,1.2,7.5,3.2,9.6l0.5,0.5v0c1.6,1.5,3.7,2.2,6,2.2
		c2.3,0,4.9-0.7,7.7-2.3l99.2-56.5l34.1-19.4c4.3-2.5,6.8-5.6,7.2-8.9v0c-0.4-3.2-2.8-6.4-7.2-8.9l-34.1-19.4L88.2,57.6
		c-2.8-1.6-5.4-2.3-7.7-2.3C78.1,55.3,76.1,56.1,74.5,57.5L74.5,57.5z"/>
	
		<linearGradient id="SVGID_1_" gradientUnits="userSpaceOnUse" x1="433.4338" y1="7.5887" x2="293.3068" y2="277.0777" gradientTransform="matrix(0.2221 0 0 0.4265 29.0637 62.241)">
		<stop  offset="0" style="stop-color:#00A0FF"/>
		<stop  offset="6.569999e-03" style="stop-color:#00A1FF"/>
		<stop  offset="0.2601" style="stop-color:#00BEFF"/>
		<stop  offset="0.5122" style="stop-color:#00D2FF"/>
		<stop  offset="0.7604" style="stop-color:#00DFFF"/>
		<stop  offset="1" style="stop-color:#00E3FF"/>
	</linearGradient>
	<path class="st3" d="M74.5,227.2l-0.5-0.5c-2-2.1-3.2-5.4-3.2-9.6v1V66.7v1c0-4.6,1.4-8,3.7-10.1l84.7,84.9L74.5,227.2"/>
	
		<linearGradient id="SVGID_2_" gradientUnits="userSpaceOnUse" x1="464.1619" y1="445.1728" x2="-20.8431" y2="445.1728" gradientTransform="matrix(0.3411 0 0 0.2777 75.6115 18.7695)">
		<stop  offset="0" style="stop-color:#FFE000"/>
		<stop  offset="0.4087" style="stop-color:#FFBD00"/>
		<stop  offset="0.7754" style="stop-color:#FFA500"/>
		<stop  offset="1" style="stop-color:#FF9C00"/>
	</linearGradient>
	<path class="st4" d="M187.4,170.7l-28.2-28.3l28.2-28.3l34.1,19.4c4.3,2.5,6.8,5.6,7.2,8.9v0c-0.4,3.2-2.8,6.4-7.2,8.9L187.4,170.7
		"/>
	
		<linearGradient id="SVGID_3_" gradientUnits="userSpaceOnUse" x1="505.1367" y1="309.2799" x2="63.0616" y2="648.1279" gradientTransform="matrix(0.3506 0 0 0.2702 -12.3221 78.0095)">
		<stop  offset="0" style="stop-color:#FF3A44"/>
		<stop  offset="1" style="stop-color:#C31162"/>
	</linearGradient>
	<path class="st5" d="M80.5,229.5c-2.4,0-4.4-0.8-6-2.2v0l84.7-84.8l28.2,28.3l-99.2,56.5C85.4,228.7,82.8,229.5,80.5,229.5"/>
	
		<linearGradient id="SVGID_4_" gradientUnits="userSpaceOnUse" x1="163.844" y1="226.9263" x2="360.943" y2="378.2313" gradientTransform="matrix(0.3506 0 0 0.2702 -12.2563 -8.8836)">
		<stop  offset="0" style="stop-color:#32A071"/>
		<stop  offset="6.850000e-02" style="stop-color:#2DA771"/>
		<stop  offset="0.4762" style="stop-color:#15CF74"/>
		<stop  offset="0.8009" style="stop-color:#06E775"/>
		<stop  offset="1" style="stop-color:#00F076"/>
	</linearGradient>
	<path class="st6" d="M159.2,142.4L74.5,57.5c1.6-1.5,3.7-2.2,6-2.2c2.3,0,4.9,0.7,7.7,2.3l99.2,56.5L159.2,142.4"/>
	
		<linearGradient id="SVGID_5_" gradientUnits="userSpaceOnUse" x1="245.2375" y1="886.6988" x2="245.2375" y2="886.6988" gradientTransform="matrix(0.3506 0 0 0.2702 -12.2563 -8.8836)">
		<stop  offset="0" style="stop-color:#32A071"/>
		<stop  offset="6.850000e-02" style="stop-color:#2DA771"/>
		<stop  offset="0.4762" style="stop-color:#15CF74"/>
		<stop  offset="0.8009" style="stop-color:#06E775"/>
		<stop  offset="1" style="stop-color:#00F076"/>
	</linearGradient>
	<path class="st7" d="M73.7,230.7"/>
	
		<linearGradient id="SVGID_6_" gradientUnits="userSpaceOnUse" x1="259.3008" y1="36.0447" x2="183.4967" y2="255.6287" gradientTransform="matrix(0.181 0 0 0.5234 43.4628 54.5044)">
		<stop  offset="0" style="stop-color:#008DE0"/>
		<stop  offset="6.569999e-03" style="stop-color:#008DE0"/>
		<stop  offset="0.2601" style="stop-color:#00A7E0"/>
		<stop  offset="0.5122" style="stop-color:#00B8E0"/>
		<stop  offset="0.7604" style="stop-color:#00C4E0"/>
		<stop  offset="1" style="stop-color:#00C7E0"/>
	</linearGradient>
	<path class="st8" d="M74,227.8c-2-2.1-3.2-5.4-3.2-9.6v-1c0,4.2,1.2,7.5,3.2,9.6l0.5,0.5L74,227.8"/>
	
		<linearGradient id="SVGID_7_" gradientUnits="userSpaceOnUse" x1="379.0759" y1="527.3629" x2="-70.9601" y2="527.3629" gradientTransform="matrix(0.3676 0 0 0.2577 94.5888 20.9707)">
		<stop  offset="0" style="stop-color:#E0C500"/>
		<stop  offset="0.4087" style="stop-color:#E0A600"/>
		<stop  offset="0.7754" style="stop-color:#E09100"/>
		<stop  offset="1" style="stop-color:#E08900"/>
	</linearGradient>
	<path class="st9" d="M188.1,171.3l-0.6-0.6l34.1-19.4c4.3-2.5,6.8-5.6,7.2-8.9c0,1.2-0.3,2.4-0.8,3.5c-1.1,2.3-3.2,4.5-6.4,6.3
		L188.1,171.3"/>
	
		<linearGradient id="SVGID_8_" gradientUnits="userSpaceOnUse" x1="379.0763" y1="526.6978" x2="-70.9657" y2="526.6978" gradientTransform="matrix(0.3676 0 0 0.2577 94.5909 -7.7936)">
		<stop  offset="0" style="stop-color:#FFE840"/>
		<stop  offset="0.4087" style="stop-color:#FFCE40"/>
		<stop  offset="0.7754" style="stop-color:#FFBC40"/>
		<stop  offset="1" style="stop-color:#FFB540"/>
	</linearGradient>
	<path class="st10" d="M228.7,142.4c-0.4-3.2-2.8-6.4-7.2-8.9l-34.1-19.4l0.6-0.6h0l33.5,19C226.3,135.2,228.7,138.8,228.7,142.4"/>
	
		<linearGradient id="SVGID_9_" gradientUnits="userSpaceOnUse" x1="164.5456" y1="308.8856" x2="89.1666" y2="518.3526" gradientTransform="matrix(0.1807 0 0 0.5242 43.55 -105.8171)">
		<stop  offset="0" style="stop-color:#40B8FF"/>
		<stop  offset="6.569999e-03" style="stop-color:#40B9FF"/>
		<stop  offset="0.2601" style="stop-color:#40CEFF"/>
		<stop  offset="0.5122" style="stop-color:#40DDFF"/>
		<stop  offset="0.7604" style="stop-color:#40E7FF"/>
		<stop  offset="1" style="stop-color:#40EAFF"/>
	</linearGradient>
	<path class="st11" d="M70.8,67.7v-1c0-0.4,0-0.7,0-1.1v0c0,0,0,0,0,0v0c0.2-3.7,1.3-6.5,3.1-8.4l0.5,0.5
		C72.2,59.6,70.8,63.1,70.8,67.7"/>
	
		<linearGradient id="SVGID_10_" gradientUnits="userSpaceOnUse" x1="166.8983" y1="419.9725" x2="166.8983" y2="419.9725" gradientTransform="matrix(0.1807 0 0 0.5242 43.55 -105.8171)">
		<stop  offset="0" style="stop-color:#40B8FF"/>
		<stop  offset="6.569999e-03" style="stop-color:#40B9FF"/>
		<stop  offset="0.2601" style="stop-color:#40CEFF"/>
		<stop  offset="0.5122" style="stop-color:#40DDFF"/>
		<stop  offset="0.7604" style="stop-color:#40E7FF"/>
		<stop  offset="1" style="stop-color:#40EAFF"/>
	</linearGradient>
	<path class="st12" d="M73.7,114.3"/>
</g>
<g class="st13">
	<path class="st14" d="M894.2,0H33C15.1,0,0-14.8,0-32.7v-209.6c0-17.9,15.1-32,33-32h861.2c17.9,0,31.5,14.1,31.5,32v209.6
		c0,17.9-14.1,32.7-32,32.7H894.2z"/>
	<path class="st15" d="M920.5-32.7c0,14.5-11.8,26.3-26.3,26.3H33C18.5-6.4,6.6-18.2,6.6-32.7v-209.6c0-14.5,11.8-26.3,26.3-26.3
		h861.2c14.6,0,26.3,11.8,26.3,26.3L920.5-32.7L920.5-32.7z"/>
	<g class="st15">
		<g>
			<path class="st1" d="M207.3-139c-0.2-22.1,18.1-32.9,18.9-33.4c-10.4-15.1-26.4-17.2-32.1-17.3c-13.5-1.4-26.6,8.1-33.5,8.1
				c-7,0-17.6-7.9-29-7.7c-14.7,0.2-28.4,8.7-36,21.9c-15.6,26.9-4,66.5,10.9,88.3c7.5,10.7,16.2,22.6,27.6,22.1
				c11.2-0.5,15.3-7.1,28.8-7.1c13.3,0,17.2,7.1,28.9,6.8c12-0.2,19.5-10.7,26.7-21.5c8.6-12.2,12.1-24.3,12.2-24.9
				C230.5-103.7,207.6-112.4,207.3-139z"/>
			<path class="st1" d="M185.4-204c6-7.5,10.1-17.7,9-28.1c-8.7,0.4-19.5,6-25.8,13.3c-5.5,6.5-10.5,17.1-9.2,27
				C169.1-191,179.1-196.6,185.4-204z"/>
		</g>
	</g>
	<g class="st15">
		<path class="st1" d="M368.7-58.5h-15.6l-8.5-26.8h-29.7l-8.1,26.8h-15.2l29.4-91.3h18.2L368.7-58.5z M342-96.6l-7.7-23.8
			c-0.8-2.4-2.3-8.2-4.6-17.2h-0.3c-0.9,3.9-2.3,9.6-4.3,17.2l-7.6,23.8H342z"/>
		<path class="st1" d="M444.4-92.3c0,11.2-3,20.1-9.1,26.6c-5.4,5.8-12.2,8.7-20.2,8.7c-8.7,0-14.9-3.1-18.7-9.4h-0.3v34.7h-14.6
			v-71c0-7-0.2-14.3-0.5-21.7h12.9l0.8,10.4h0.3c4.9-7.9,12.3-11.8,22.2-11.8c7.8,0,14.3,3.1,19.4,9.2
			C441.8-110.4,444.4-102.3,444.4-92.3z M429.4-91.7c0-6.4-1.4-11.7-4.3-15.9c-3.2-4.3-7.4-6.5-12.7-6.5c-3.6,0-6.9,1.2-9.8,3.6
			c-2.9,2.4-4.9,5.5-5.8,9.4c-0.5,1.8-0.7,3.3-0.7,4.5v11c0,4.8,1.5,8.8,4.4,12.1c2.9,3.3,6.8,4.9,11.5,4.9c5.5,0,9.8-2.1,12.9-6.4
			C427.9-79.2,429.4-84.8,429.4-91.7z"/>
		<path class="st1" d="M520.1-92.3c0,11.2-3,20.1-9.1,26.6c-5.4,5.8-12.1,8.7-20.2,8.7c-8.7,0-14.9-3.1-18.7-9.4h-0.3v34.7h-14.6
			v-71c0-7-0.2-14.3-0.5-21.7h12.9l0.8,10.4h0.3c4.9-7.9,12.3-11.8,22.2-11.8c7.8,0,14.2,3.1,19.5,9.2
			C517.5-110.4,520.1-102.3,520.1-92.3z M505.2-91.7c0-6.4-1.4-11.7-4.3-15.9c-3.2-4.3-7.4-6.5-12.7-6.5c-3.6,0-6.9,1.2-9.8,3.6
			c-2.9,2.4-4.8,5.5-5.8,9.4c-0.4,1.8-0.7,3.3-0.7,4.5v11c0,4.8,1.5,8.8,4.4,12.1c2.9,3.3,6.8,4.9,11.5,4.9c5.5,0,9.8-2.1,12.9-6.4
			C503.7-79.2,505.2-84.8,505.2-91.7z"/>
		<path class="st1" d="M604.8-84.1c0,7.8-2.7,14.1-8.1,19c-6,5.3-14.2,8-24.9,8c-9.8,0-17.7-1.9-23.7-5.7l3.4-12.2
			c6.4,3.9,13.5,5.8,21.2,5.8c5.5,0,9.8-1.2,12.9-3.7c3.1-2.5,4.6-5.8,4.6-10c0-3.7-1.3-6.8-3.8-9.4c-2.5-2.5-6.7-4.9-12.6-7.1
			c-16-6-24-14.7-24-26.2c0-7.5,2.8-13.7,8.4-18.5c5.6-4.8,13-7.2,22.4-7.2c8.3,0,15.2,1.4,20.7,4.3l-3.7,11.9
			c-5.1-2.8-11-4.2-17.5-4.2c-5.1,0-9.2,1.3-12.1,3.8c-2.4,2.3-3.7,5-3.7,8.3c0,3.6,1.4,6.6,4.2,8.9c2.4,2.2,6.9,4.5,13.3,7.1
			c7.9,3.2,13.6,6.9,17.3,11.1C602.9-95.7,604.8-90.5,604.8-84.1z"/>
		<path class="st1" d="M653.2-113.4h-16.1v32c0,8.1,2.8,12.2,8.5,12.2c2.6,0,4.8-0.2,6.5-0.7l0.4,11.1c-2.9,1.1-6.7,1.6-11.4,1.6
			c-5.8,0-10.3-1.8-13.6-5.3c-3.2-3.5-4.9-9.4-4.9-17.8v-33.2h-9.6v-11h9.6v-12.1l14.4-4.3v16.4h16.1V-113.4z"/>
		<path class="st1" d="M726-92c0,10.1-2.9,18.4-8.7,24.9c-6.1,6.7-14.1,10-24.1,10c-9.7,0-17.4-3.2-23.1-9.6
			c-5.7-6.4-8.6-14.5-8.6-24.3c0-10.2,2.9-18.6,8.9-25.1c5.9-6.5,13.9-9.8,23.9-9.8c9.7,0,17.4,3.2,23.3,9.6
			C723.2-109.9,726-101.8,726-92z M710.8-91.5c0-6.1-1.3-11.3-3.9-15.6c-3.1-5.3-7.5-7.9-13.1-7.9c-5.9,0-10.3,2.6-13.4,7.9
			c-2.6,4.4-3.9,9.6-3.9,15.9c0,6.1,1.3,11.3,3.9,15.6c3.2,5.3,7.6,7.9,13.3,7.9c5.6,0,10-2.7,13.1-8
			C709.4-80.2,710.8-85.5,710.8-91.5z"/>
		<path class="st1" d="M773.5-111.5c-1.4-0.3-3-0.4-4.6-0.4c-5.1,0-9.1,1.9-11.9,5.8c-2.4,3.4-3.7,7.8-3.7,13v34.6h-14.6l0.1-45.1
			c0-7.6-0.2-14.5-0.5-20.7H751l0.5,12.6h0.4c1.5-4.3,4-7.8,7.3-10.4c3.3-2.4,6.8-3.5,10.6-3.5c1.4,0,2.6,0.1,3.7,0.3V-111.5z"/>
		<path class="st1" d="M839-94.6c0,2.6-0.2,4.8-0.5,6.6h-43.9c0.2,6.5,2.3,11.5,6.4,14.9c3.7,3.1,8.5,4.6,14.4,4.6
			c6.5,0,12.4-1,17.8-3.1l2.3,10.2c-6.2,2.7-13.6,4.1-22.1,4.1c-10.2,0-18.2-3-24.1-9c-5.8-6-8.7-14.1-8.7-24.2
			c0-9.9,2.7-18.2,8.1-24.8c5.7-7,13.4-10.6,23-10.6c9.5,0,16.7,3.5,21.6,10.6C837-109.7,839-102.8,839-94.6z M825-98.4
			c0.1-4.3-0.9-8.1-2.8-11.2c-2.5-4.1-6.4-6.1-11.7-6.1c-4.8,0-8.7,2-11.6,6c-2.4,3.2-3.9,7-4.3,11.4H825z"/>
	</g>
	<g class="st15">
		<g>
			<path class="st1" d="M337.2-206.1c0,8.1-2.4,14.2-7.3,18.2c-4.5,3.8-10.9,5.7-19.1,5.7c-4.1,0-7.6-0.2-10.5-0.5v-44.1
				c3.8-0.6,7.9-0.9,12.4-0.9c7.9,0,13.8,1.7,17.8,5.1C335-218.8,337.2-213.2,337.2-206.1z M329.6-205.9c0-5.2-1.4-9.3-4.2-12.1
				c-2.8-2.8-6.8-4.2-12.2-4.2c-2.3,0-4.2,0.2-5.8,0.5v33.6c0.9,0.1,2.5,0.2,4.9,0.2c5.5,0,9.8-1.5,12.7-4.6
				C328.1-195.5,329.6-200,329.6-205.9z"/>
			<path class="st1" d="M377.4-199c0,5-1.4,9.1-4.3,12.2c-3,3.3-6.9,4.9-11.9,4.9c-4.8,0-8.5-1.6-11.4-4.7
				c-2.8-3.2-4.2-7.1-4.2-11.9c0-5,1.4-9.1,4.4-12.3c2.9-3.2,6.8-4.8,11.7-4.8c4.8,0,8.6,1.6,11.5,4.7
				C376-207.8,377.4-203.8,377.4-199z M369.9-198.8c0-3-0.6-5.5-1.9-7.7c-1.5-2.6-3.7-3.9-6.5-3.9c-2.9,0-5.1,1.3-6.6,3.9
				c-1.3,2.1-1.9,4.7-1.9,7.8c0,3,0.6,5.5,1.9,7.7c1.6,2.6,3.7,3.9,6.5,3.9c2.7,0,4.9-1.3,6.5-3.9
				C369.3-193.2,369.9-195.8,369.9-198.8z"/>
			<path class="st1" d="M431.3-214.9l-10.1,32.4h-6.6l-4.2-14c-1.1-3.5-1.9-7-2.6-10.5h-0.1c-0.6,3.6-1.5,7-2.6,10.5l-4.5,14H394
				l-9.5-32.4h7.4l3.7,15.4c0.9,3.6,1.6,7.1,2.2,10.4h0.1c0.5-2.7,1.4-6.1,2.7-10.3l4.6-15.4h5.9l4.4,15.1c1.1,3.7,1.9,7.2,2.6,10.7
				h0.2c0.5-3.3,1.2-6.9,2.2-10.7l3.9-15.1H431.3z"/>
			<path class="st1" d="M468.6-182.6h-7.2v-18.5c0-5.7-2.2-8.6-6.5-8.6c-2.1,0-3.9,0.8-5.2,2.4c-1.3,1.6-2,3.4-2,5.5v19.2h-7.2
				v-23.1c0-2.8-0.1-5.9-0.3-9.3h6.3l0.3,5.1h0.2c0.8-1.6,2.1-2.9,3.7-3.9c2-1.2,4.1-1.8,6.5-1.8c3,0,5.5,1,7.5,2.9
				c2.5,2.4,3.7,6,3.7,10.7V-182.6z"/>
			<path class="st1" d="M488.5-182.6h-7.2v-47.2h7.2V-182.6z"/>
			<path class="st1" d="M530.8-199c0,5-1.4,9.1-4.3,12.2c-3,3.3-6.9,4.9-11.8,4.9c-4.8,0-8.5-1.6-11.4-4.7
				c-2.8-3.2-4.2-7.1-4.2-11.9c0-5,1.4-9.1,4.4-12.3c2.9-3.2,6.8-4.8,11.7-4.8c4.8,0,8.6,1.6,11.5,4.7
				C529.4-207.8,530.8-203.8,530.8-199z M523.3-198.8c0-3-0.6-5.5-1.9-7.7c-1.5-2.6-3.7-3.9-6.4-3.9c-2.9,0-5.1,1.3-6.6,3.9
				c-1.3,2.1-1.9,4.7-1.9,7.8c0,3,0.6,5.5,1.9,7.7c1.6,2.6,3.7,3.9,6.5,3.9c2.7,0,4.9-1.3,6.4-3.9
				C522.7-193.2,523.3-195.8,523.3-198.8z"/>
			<path class="st1" d="M565.6-182.6h-6.5l-0.5-3.7h-0.2c-2.2,3-5.4,4.5-9.5,4.5c-3.1,0-5.5-1-7.4-2.9c-1.7-1.8-2.5-4-2.5-6.6
				c0-4,1.6-7,5-9.1c3.3-2.1,8-3.1,14-3.1v-0.6c0-4.3-2.2-6.4-6.7-6.4c-3.2,0-6,0.8-8.4,2.4l-1.5-4.7c3-1.9,6.7-2.8,11.1-2.8
				c8.5,0,12.7,4.5,12.7,13.4v11.9C565.1-187,565.3-184.5,565.6-182.6z M558.1-193.7v-5c-7.9-0.1-11.9,2-11.9,6.5
				c0,1.7,0.5,3,1.4,3.8c0.9,0.8,2.1,1.3,3.5,1.3c1.6,0,3.1-0.5,4.4-1.5c1.4-1,2.2-2.3,2.5-3.8C558.1-192.8,558.1-193.2,558.1-193.7
				z"/>
			<path class="st1" d="M606.5-182.6h-6.4l-0.3-5.2h-0.2c-2,4-5.5,5.9-10.4,5.9c-3.9,0-7.1-1.5-9.7-4.6c-2.6-3.1-3.9-7-3.9-11.9
				c0-5.2,1.4-9.5,4.2-12.7c2.7-3,6-4.5,10-4.5c4.3,0,7.4,1.5,9.1,4.4h0.1v-18.6h7.2v38.5C606.2-188.1,606.3-185.2,606.5-182.6z
				 M599-196.2v-5.4c0-0.9-0.1-1.7-0.2-2.3c-0.4-1.7-1.3-3.2-2.6-4.4c-1.3-1.2-2.9-1.8-4.8-1.8c-2.7,0-4.8,1.1-6.3,3.2
				c-1.5,2.1-2.3,4.9-2.3,8.2c0,3.2,0.7,5.8,2.2,7.8c1.6,2.1,3.7,3.2,6.3,3.2c2.4,0,4.2-0.9,5.7-2.7
				C598.4-191.9,599-193.9,599-196.2z"/>
			<path class="st1" d="M668-199c0,5-1.4,9.1-4.3,12.2c-3,3.3-6.9,4.9-11.9,4.9c-4.7,0-8.5-1.6-11.4-4.7c-2.8-3.2-4.2-7.1-4.2-11.9
				c0-5,1.4-9.1,4.4-12.3c2.9-3.2,6.8-4.8,11.8-4.8c4.7,0,8.6,1.6,11.4,4.7C666.6-207.8,668-203.8,668-199z M660.6-198.8
				c0-3-0.6-5.5-1.9-7.7c-1.5-2.6-3.7-3.9-6.5-3.9c-2.9,0-5.1,1.3-6.6,3.9c-1.3,2.1-1.9,4.7-1.9,7.8c0,3,0.6,5.5,1.9,7.7
				c1.6,2.6,3.7,3.9,6.5,3.9c2.7,0,4.9-1.3,6.5-3.9C659.9-193.2,660.6-195.8,660.6-198.8z"/>
			<path class="st1" d="M706.7-182.6h-7.2v-18.5c0-5.7-2.2-8.6-6.5-8.6c-2.1,0-3.9,0.8-5.2,2.4c-1.3,1.6-2,3.4-2,5.5v19.2h-7.2
				v-23.1c0-2.8-0.1-5.9-0.3-9.3h6.3l0.3,5.1h0.2c0.8-1.6,2.1-2.9,3.7-3.9c2-1.2,4.1-1.8,6.5-1.8c3,0,5.5,1,7.5,2.9
				c2.5,2.4,3.7,6,3.7,10.7V-182.6z"/>
			<path class="st1" d="M755.1-209.5h-7.9v15.7c0,4,1.4,6,4.2,6c1.3,0,2.4-0.1,3.2-0.3l0.2,5.5c-1.4,0.5-3.3,0.8-5.6,0.8
				c-2.8,0-5.1-0.9-6.6-2.6c-1.6-1.7-2.4-4.6-2.4-8.7v-16.3h-4.7v-5.4h4.7v-5.9l7.1-2.1v8.1h7.9V-209.5z"/>
			<path class="st1" d="M793.2-182.6H786v-18.4c0-5.8-2.2-8.7-6.5-8.7c-3.3,0-5.6,1.7-6.9,5c-0.2,0.7-0.3,1.6-0.3,2.6v19.5h-7.2
				v-47.2h7.2v19.5h0.1c2.3-3.5,5.5-5.3,9.7-5.3c3,0,5.4,1,7.4,2.9c2.4,2.4,3.7,6.1,3.7,10.9V-182.6z"/>
			<path class="st1" d="M832.4-200.3c0,1.3-0.1,2.4-0.3,3.3h-21.6c0.1,3.2,1.1,5.6,3.1,7.3c1.8,1.5,4.2,2.3,7.1,2.3
				c3.2,0,6.1-0.5,8.7-1.5l1.1,5c-3.1,1.3-6.7,2-10.9,2c-5,0-9-1.5-11.8-4.4c-2.9-3-4.3-6.9-4.3-11.9c0-4.9,1.3-8.9,4-12.2
				c2.8-3.5,6.6-5.2,11.3-5.2c4.7,0,8.2,1.7,10.6,5.2C831.5-207.7,832.4-204.3,832.4-200.3z M825.6-202.1c0.1-2.1-0.4-4-1.4-5.5
				c-1.2-2-3.2-3-5.7-3c-2.3,0-4.3,1-5.7,2.9c-1.2,1.6-1.9,3.4-2.1,5.6H825.6z"/>
		</g>
	</g>
</g>
</svg>
